# xmcd
#
# Track frame offsets: 
#        150
#        20003
#        48785
#        64910
#        80838
#        103285
#        118565
#        140015
#        155565
#        172083
#        189365
#        211647
#
# Disc length: 3064 seconds
#
# Revision: 3
# Processed by: cddbd v1.5.2PL0 Copyright (c) Steve Scherf et al.
# Submitted via: ExactAudioCopy v1.0b3
#
DISCID=aa0bf60c
DTITLE=Tyrone Davis - For The Good Times
DYEAR=1994
DGENRE=Soul
TTITLE0=I've Never Found A Girl
TTITLE1=For The Good Times
TTITLE2=I Love You Baby
TTITLE3=You Made Me Beautiful
TTITLE4=Comin' Back Home
TTITLE5=Turn Back The Hands Of TIme
TTITLE6=It's So Good (To Be Home With You)
TTITLE7=Can I Change My Mind
TTITLE8=Crossfire
TTITLE9=You're Heaven Sent
TTITLE10=My Place
TTITLE11=It's All Over Now
EXTD=
EXTT0=
EXTT1=
EXTT2=
EXTT3=
EXTT4=
EXTT5=
EXTT6=
EXTT7=
EXTT8=
EXTT9=
EXTT10=
EXTT11=
PLAYORDER=
